<svg version="1.1" id="Layer_1" xmlns="http://www.w3.org/2000/svg" xmlns:xlink="http://www.w3.org/1999/xlink" x="0px" y="0px" width="100%" viewBox="0 0 512 512" enable-background="new 0 0 512 512" xml:space="preserve">
<path fill="#795548" opacity="1.000000" stroke="none" d="
M186.000000,1.000000 
	C200.020889,1.000000 214.041794,1.000000 228.722961,1.383941 
	C233.301697,2.176357 237.214584,2.651179 241.139603,2.981986 
	C259.576904,4.535912 277.332123,9.342103 294.748230,15.141271 
	C321.393280,24.013462 346.421051,36.426121 369.631409,52.294876 
	C391.515900,67.257111 411.716339,84.130569 429.596344,103.876312 
	C442.718597,118.367882 454.710510,133.611938 465.395142,149.927979 
	C477.291107,168.093781 487.118530,187.370926 494.784302,207.649185 
	C502.846771,228.976746 508.980072,250.863647 511.084717,273.714569 
	C511.433624,277.503052 512.347290,281.239502 513.000000,285.000000 
	C513.000000,299.020905 513.000000,313.041779 512.618042,327.719788 
	C509.836792,341.652527 508.105133,355.091644 504.902710,368.170654 
	C497.686951,397.640228 483.214539,423.555817 463.181885,446.138031 
	C443.358734,468.484100 419.657257,485.762329 391.797882,497.052460 
	C376.699646,503.171082 361.213745,507.787689 345.040649,510.046326 
	C339.661194,510.797607 334.345093,512.002502 329.000000,513.000000 
	C314.645782,513.000000 300.291534,513.000000 285.277039,512.616089 
	C280.698181,511.823608 276.783447,511.372681 272.860321,511.014038 
	C255.926498,509.465942 239.600082,505.177460 223.436646,500.133362 
	C193.709015,490.856140 165.922974,477.415436 140.860107,459.040192 
	C124.632408,447.142578 109.265404,433.965729 94.311310,420.476776 
	C85.685349,412.695953 78.548279,403.239929 70.916626,394.386597 
	C55.944244,377.017303 43.769344,357.741333 33.209503,337.466309 
	C24.118135,320.010803 16.521996,301.838287 11.540421,282.793976 
	C7.970081,269.144745 5.758714,255.137817 3.016253,241.275589 
	C2.211906,237.209885 1.664930,233.093277 0.999999,229.000000 
	C1.000000,214.979111 1.000000,200.958206 1.381948,186.280243 
	C3.684820,173.725723 4.991035,161.688141 7.663978,149.962112 
	C12.206280,130.035355 20.490112,111.474251 31.061634,94.032997 
	C42.030300,75.936516 55.699722,59.963730 72.088310,46.594051 
	C85.329994,35.791595 99.802406,26.791286 115.503403,19.764736 
	C134.463821,11.279528 154.072723,5.370000 174.728561,2.963019 
	C178.510605,2.522305 182.244095,1.665004 186.000000,1.000000 
M102.994698,184.484985 
	C116.291382,207.316910 133.127045,227.218918 153.540817,243.917542 
	C174.899796,261.389374 198.913437,274.066498 225.301331,282.406006 
	C252.595993,291.032074 280.150848,299.089813 306.801758,309.432251 
	C338.860474,321.873322 365.589203,342.637054 387.342468,369.282715 
	C401.542999,386.676971 414.786743,404.852051 428.472321,422.667175 
	C434.499084,430.512512 440.558899,438.332489 446.603699,446.163971 
	C447.746094,444.145752 447.940338,442.559662 447.717102,441.034668 
	C444.091431,416.266235 438.765991,391.920013 429.682312,368.502167 
	C416.441986,334.368439 397.757019,303.961517 370.605743,278.873047 
	C347.554962,257.573547 321.189117,242.266830 291.575775,232.437683 
	C267.873169,224.570419 243.812195,217.749420 220.260422,209.468246 
	C177.788010,194.534271 143.187714,168.446518 115.908424,132.742630 
	C101.354744,113.694359 87.305878,94.260735 72.982574,75.035751 
	C70.863785,72.191879 68.487076,69.540169 66.229691,66.799553 
	C70.350700,108.563866 81.855179,147.680023 102.994698,184.484985 
z" data-index="0" style="opacity: 1;"></path>




<path fill="#5D4037" opacity="1.000000" stroke="none" d="
M102.795898,184.178146 
	C81.855179,147.680023 70.350700,108.563866 66.229691,66.799553 
	C68.487076,69.540169 70.863785,72.191879 72.982574,75.035751 
	C87.305878,94.260735 101.354744,113.694359 115.908424,132.742630 
	C143.187714,168.446518 177.788010,194.534271 220.260422,209.468246 
	C243.812195,217.749420 267.873169,224.570419 291.575775,232.437683 
	C321.189117,242.266830 347.554962,257.573547 370.605743,278.873047 
	C397.757019,303.961517 416.441986,334.368439 429.682312,368.502167 
	C438.765991,391.920013 444.091431,416.266235 447.717102,441.034668 
	C447.940338,442.559662 447.746094,444.145752 446.603699,446.163971 
	C440.558899,438.332489 434.499084,430.512512 428.472321,422.667175 
	C414.786743,404.852051 401.542999,386.676971 387.342468,369.282715 
	C365.589203,342.637054 338.860474,321.873322 306.801758,309.432251 
	C280.150848,299.089813 252.595993,291.032074 225.301331,282.406006 
	C198.913437,274.066498 174.899796,261.389374 153.540817,243.917542 
	C133.127045,227.218918 116.291382,207.316910 102.795898,184.178146 
z" data-index="5" style="opacity: 1;"></path>
</svg>